PathFileType	4	(X/Y/Z)	Falisse_et_al_2022_v1.trc
DataRate	CameraRate	NumFrames	NumMarkers	Units	OrigDataRate	OrigDataStartFrame	OrigNumFrames
0	0	4	47	m	0	25	200
Frame#	Time	RASI			LASI			CLAV			RSHO			LSHO			RKNE			RKNE_med			RTHI1			RTHI2			RTHI3			RANK			RANK_med			RTIB1			RTIB2			RTIB3			LKNE			LKNE_med			LTHI1			LTHI2			LTHI3			LANK			LANK_med			LTIB1			LTIB2			LTIB3			RPSI			LPSI			RELB			LELB			RW1			RW2			LW1			LW2			hum_l2			hum_r2			rad_l2			rad_r2			LH			RH			Foot_r1			Foot_r4			Foot_r6			Foot_r7			foot_l1			foot_l4			foot_l6			foot_l7		
		X1	Y1	Z1	X2	Y2	Z2	X3	Y3	Z3	X4	Y4	Z4	X5	Y5	Z5	X6	Y6	Z6	X7	Y7	Z7	X8	Y8	Z8	X9	Y9	Z9	X10	Y10	Z10	X11	Y11	Z11	X12	Y12	Z12	X13	Y13	Z13	X14	Y14	Z14	X15	Y15	Z15	X16	Y16	Z16	X17	Y17	Z17	X18	Y18	Z18	X19	Y19	Z19	X20	Y20	Z20	X21	Y21	Z21	X22	Y22	Z22	X23	Y23	Z23	X24	Y24	Z24	X25	Y25	Z25	X26	Y26	Z26	X27	Y27	Z27	X28	Y28	Z28	X29	Y29	Z29	X30	Y30	Z30	X31	Y31	Z31	X32	Y32	Z32	X33	Y33	Z33	X34	Y34	Z34	X35	Y35	Z35	X36	Y36	Z36	X37	Y37	Z37	X38	Y38	Z38	X39	Y39	Z39	X40	Y40	Z40	X41	Y41	Z41	X42	Y42	Z42	X43	Y43	Z43	X44	Y44	Z44	X45	Y45	Z45	X46	Y46	Z46	X47	Y47	Z47
25	0.27566602	0.3930238528908893	0.9392564357267296	0.12924831042409327	0.36964025722193206	0.926072169915978	-0.12570114355175147	0.39602452119582787	1.3609988932456079	-0.004973788061780244	0.31859125207830946	1.3954666682240084	0.1888822592796884	0.29797311362805967	1.3992444222147584	-0.15485140183859525	0.3518764177819322	0.45342251084095714	0.10507339659232814	0.280891305303974	0.43643190691898687	0.01224414483179359	0.39773780115297536	0.7558166140092052	0.17798550910338837	0.3433665394332509	0.7432245023220447	0.21293642754439018	0.37786823292432986	0.7029853963340876	0.18762486415787497	0.2593837104873905	0.06677392439310798	0.08896388137836646	0.25392573598254087	0.09097448631491512	0.007435478861927455	0.3227073634392741	0.2746338928762939	0.11587387011752573	0.2548637100665519	0.2732806568136103	0.14360607857658814	0.2893106916686637	0.23111665979398663	0.1250442052700764	0.41367427060564	0.4730810818173171	-0.12670199362727547	0.4094039817260106	0.46476164403023634	-0.03229680478880038	0.4374576830347051	0.7056222671251413	-0.12491501266209658	0.3920416376053343	0.6937446139820657	-0.17647952178450071	0.42864929985020545	0.6510072411121999	-0.1507354718988943	0.09583804943570934	0.199220183711528	-0.09465901172242308	0.10851867975205443	0.21315573580062508	-0.010683297539660158	0.2583209364195157	0.3173883407317637	-0.11456729747715479	0.210688295704547	0.35821168616184257	-0.1378278548163577	0.20474037081795302	0.30095937583255383	-0.12321875580405632	0.21603721153478045	0.9814168323701331	0.04084728289047782	0.2130123375196331	0.9848090595737746	-0.007424752671313878	0.26690405342585694	1.0865635609886108	0.225879874884693	0.22174974466670416	1.075499444701343	-0.20109511630122479	0.3562089568868332	0.8591216046591734	0.26678952707824505	0.2819058044743123	0.8661403455862103	0.29243759371066474	0.47858018945162056	0.9666247314356176	-0.15049407001006654	0.42642117190431233	0.9062733548323663	-0.16599684773825701	0.27109734791773177	1.2405440379008421	-0.2072921691566699	0.3030468396556889	1.2358993778341278	0.22152994623467379	0.3575766625711239	1.0029502829127672	-0.20025782825833627	0.30970417945634	0.9480550995092947	0.27438024547370016	0.5087543102599034	0.900917236093291	-0.16423367020615315	0.3361495212142721	0.8159088763227103	0.3107114004074904	0.20497786368238102	0.06457384474395492	0.05660799735598587	0.300702706246412	0.034157597285875904	0.08870896801555034	0.4033135809580768	0.04484691840917418	0.048777893084378625	0.4283478830977506	0.04339403520574513	0.0053280347490256424	0.04027192634716785	0.21959999779830985	-0.05264647340546215	0.1033247663646972	0.1370965057723869	-0.09152614818563441	0.1883062442805128	0.08566030493919992	-0.06084207888561522	0.21279814090902516	0.06759061541580785	-0.023658991810619888
26	0.28669266	0.40506002523560886	0.9399360505834555	0.12978402735390193	0.3835083324688969	0.9275458964517976	-0.12536661464694077	0.4094139042771355	1.3619118034599818	-0.0038289075636290058	0.3309571759164162	1.396183651557788	0.1896500007750801	0.31223771281458174	1.400508138446428	-0.15418584575415595	0.3542047057765426	0.45319547621819917	0.1062335188329109	0.282913982519466	0.43757824002984924	0.013397257011990099	0.4071815317032252	0.7546626757316457	0.1781544462373471	0.3524967914433025	0.7434869418765926	0.2130978895867377	0.38605331276407895	0.7023522083922482	0.18795586652668506	0.26003753448286726	0.06756088266279109	0.0892924843444181	0.25491685817872023	0.09190474584445879	0.007784864458362677	0.3244089822720277	0.27503930686096056	0.11665704567317273	0.25648880133188534	0.27401211801743275	0.1442153809087123	0.290755692275051	0.2316895189038618	0.12568113918763804	0.4390979823144838	0.47829867877549187	-0.12693701046404823	0.43479043316871624	0.4698004791629001	-0.03254943863630136	0.45586473413750567	0.7114493489808384	-0.1249652376039801	0.41098525683176856	0.6982394645456864	-0.17667525498589698	0.4487837077683311	0.6566086996647725	-0.15083891233467325	0.13282230660850486	0.19182621775108943	-0.09628412605278072	0.14467462028000821	0.20612874854405328	-0.012249140223654462	0.2903477161206137	0.31663143853524073	-0.11552325183606896	0.24113852919542808	0.35549473118019104	-0.13885923110136383	0.2375158822648359	0.2980207517451403	-0.12435927456471849	0.22869922662917955	0.9823258705903379	0.04024920838758773	0.22601944257534715	0.9858688048744209	-0.008032391208645798	0.2827818056798067	1.086258941486978	0.22574640247203315	0.23703629211724103	1.076552766304886	-0.201292401224478	0.37853820045335385	0.8601038868621531	0.26315411627564483	0.30410680277700125	0.8645747413568918	0.28900025727680284	0.48901974927474345	0.9583374276441561	-0.1549830571030788	0.4343428818632532	0.9006066270675952	-0.1717396295913056	0.2858313990382569	1.2417796798001373	-0.20698553327120514	0.31706143851725627	1.2360473470145743	0.22190590632395385	0.36935459162033113	1.0008985290368493	-0.2030104819186556	0.3295077503560621	0.9475309103656697	0.2722100734557491	0.5163941841404538	0.8918368034111319	-0.17063669619001676	0.35980308242671893	0.8156426584910248	0.3064097093335524	0.20576163390305996	0.06596750028932451	0.056957161810549696	0.30115536005420745	0.034396407379822386	0.08892853985600312	0.40386218895873144	0.04405666165508097	0.04898194145209628	0.42865766805325634	0.04313314878190864	0.005494620425349567	0.07592307977281833	0.20917329989882547	-0.05389734421519649	0.14339680487793097	0.13075763028487314	-0.09380217000349954	0.23100409936699362	0.08357300293863061	-0.06367544850547617	0.2563008008720291	0.06609156272902474	-0.02668506531395206
27	0.29771931	0.41708337837917964	0.940394695340739	0.13030099279854296	0.3974371353619268	0.9288147008612085	-0.12504146422167187	0.42281694814592474	1.362616835525733	-0.0026903498522419453	0.3432869994892857	1.396692491843525	0.19038461663028647	0.3265572991493436	1.4015602863034362	-0.1535465255301453	0.3564078116618147	0.45299218524421037	0.10739593206766557	0.2848787203910206	0.4387627092716187	0.014519950710361995	0.41651889468488096	0.7533531322510004	0.1783296721173667	0.3615379094527025	0.7436172970112229	0.21323908134595626	0.39412834064965896	0.701600034860385	0.18828630151532033	0.2606531225970527	0.06836814425376031	0.08959567562538386	0.25590731223325025	0.09284760193372321	0.008105979739369933	0.32602761468401464	0.27546932353655956	0.1174358684944871	0.25801971366754267	0.2747614524399801	0.14478714368707535	0.2921204125710208	0.2322845775498741	0.12629937041178174	0.4637974870042698	0.4833998007256332	-0.12702068368390065	0.4593681542800341	0.47473844587861314	-0.03265358117635968	0.47395108768105376	0.7169306355005652	-0.12489925144868352	0.4296632424277415	0.7024803862813016	-0.17678731836184022	0.46852486482099104	0.6619238009330115	-0.1508200742027763	0.17056077670540865	0.18400035696867922	-0.09805077777479758	0.18146649589687114	0.1986412880863893	-0.013945920633986308	0.32244730932564036	0.31572623950052836	-0.1164767056388785	0.27164172161303823	0.3524113427051777	-0.13991733236592013	0.27052715696996843	0.2948031516324038	-0.12554079977185714	0.24138373635836202	0.9830286048726752	0.039589926856050166	0.2390629434759605	0.9867251447610339	-0.008698746751104224	0.29850889699890615	1.0858206864496658	0.22557771414987235	0.252522158938573	1.0773663867865848	-0.20155457100383123	0.4011032951811333	0.8612559402415839	0.25932125939599127	0.326586735349827	0.86298062057418	0.28525101630341165	0.49904246419835685	0.9498544201913502	-0.15976673750395073	0.4418832909112159	0.8949708662635646	-0.17776152297319037	0.3007171812289358	1.2427865977930646	-0.20672184998848234	0.3309484217267521	1.2360305505830922	0.2222485969872557	0.3810621747513552	0.9987437042999833	-0.20590045666875945	0.34940217867566714	0.9469580995699669	0.2698860251016754	0.523492561060652	0.8827099275523458	-0.1773888541741485	0.3837794048349944	0.8155005612096391	0.30180866834794867	0.20653117392530027	0.06737457971221736	0.057260621423220595	0.30156854226076935	0.034653683732366214	0.08913706251644773	0.40437619560554766	0.04328859302513333	0.04921502980799969	0.4289518988441428	0.0429129151621532	0.005704955808434688	0.11245529827086975	0.19812236489849216	-0.05535020231732486	0.1842620265500739	0.12416574748506498	-0.09619537897700105	0.27433143268736965	0.081537422527995	-0.06654113066169393	0.3004446602182581	0.06476418985136628	-0.029732371614835336
28	0.30874595	0.429111335861918	0.9406211042814197	0.13079669757371523	0.4114381304994656	0.9298635256115418	-0.12472585291319815	0.43624742204602246	1.3631019488873206	-0.001559520973370275	0.3555973762677446	1.396980845029429	0.19108496060136726	0.34094385936252125	1.402388732281212	-0.1529328267904009	0.35853888649542565	0.4528107929445493	0.10854133065026067	0.28683868838332816	0.4399787525660264	0.015593726442447428	0.4257778103753086	0.7518855163832207	0.17850470093799042	0.3705205002235116	0.7436076403014533	0.21335392646696416	0.4021263669991991	0.7007250377320966	0.18860762719276825	0.26123638516572245	0.06919768428511441	0.0898707925455756	0.25690241040693496	0.09380257034306644	0.008395929276130941	0.32759332358665355	0.27591993487802835	0.11819863835397734	0.25948774688835075	0.2755333711783583	0.14531226828274227	0.29343053957388815	0.23290191828780143	0.12688982610042235	0.48768903378418277	0.48826632353785054	-0.12695126671627943	0.48305643223608263	0.4794558195742299	-0.03260773426894999	0.4917045329800651	0.7219822933878622	-0.12472234873099897	0.44804890789159996	0.7063953243381978	-0.17681675554828186	0.4878415543960036	0.6668619567560596	-0.15068213844459707	0.2090448472111045	0.1758022321709517	-0.09990875961972634	0.2188934604314719	0.1907433840850989	-0.015726306775521212	0.35456038828547176	0.3146547988063583	-0.11739972249881579	0.30216256806187014	0.3489354720929562	-0.14097452676412942	0.3037334921685767	0.29130512088280086	-0.12673003873211908	0.25410729989849734	0.9835138051306056	0.038871099707723164	0.2521582905612766	0.9873661177452154	-0.00942183492675798	0.3140506970587785	1.0852425184672911	0.22537342178550782	0.26820325801265876	1.077935218222103	-0.20187997512533656	0.42386795548460354	0.8626177826283249	0.255299634331169	0.34932591525746065	0.8613959731204812	0.2811846864833624	0.508637872566734	0.9412500789157012	-0.16482274466217647	0.4490590484538364	0.8894378252758002	-0.18403320995525344	0.3157635756856044	1.2435551967600504	-0.2065001533730227	0.34469751075445887	1.2358388273389431	0.22255675120312246	0.3927067055354633	0.9965143726580817	-0.2089096269578648	0.36935896309652283	0.9463532365344467	0.26740844698341787	0.5300558503999201	0.8736302379673255	-0.18445833632416994	0.40805064061429924	0.8155308270127875	0.2969107262140662	0.2072910006431828	0.06880065355826498	0.05751839773798304	0.30194513207262613	0.03492661806642552	0.0893305185956233	0.4048575467479242	0.04252940092851899	0.049468550019294844	0.42923034655421677	0.04271766554419412	0.0059493707709471	0.14989421417283952	0.1865337606583448	-0.056962487996895295	0.22588325549638472	0.11737589552753785	-0.09863947482460772	0.3182051629551786	0.07958104434811397	-0.06936045364541361	0.3451296833939868	0.06363887802515762	-0.03271562834062061
